/* XPM */
static const char * filesave_xpm[] = {
"22 22 6 1",
" 	c None",
".	c #000000",
"+	c #848200",
"@	c #FFFF00",
"#	c #FFFFFF",
"$	c #C1C1C1",
"                      ",
" .................... ",
" .++.@#@#@#@#@#@#.$$. ",
" .++.#@#@#@#@#@#@.$$. ",
" .++.@#@#@#@#@#@#.... ",
" .++.#@#@#@#@#@#@.++. ",
" .++.@#@#@#@#@#@#.++. ",
" .++.#@#@#@#@#@#@.++. ",
" .++.@#@#@#@#@#@#.++. ",
" .++.#@#@#@#@#@#@.++. ",
" .++.@#@#@#@#@#@#.++. ",
" .+++............+++. ",
" .++++++++++++++++++. ",
" .++++++++++++++++++. ",
" .+++.............++. ",
" .+++.........$$$.++. ",
" .+++.........$$$.++. ",
" .+++.........$$$.++. ",
" .+++.........$$$.++. ",
" .+++.........$$$.++. ",
"  ..................  ",
"                      "};
