/* XPM */
static const char * filesaveas_xpm[] = {
"22 22 7 1",
" 	c None",
".	c #000000",
"+	c #848200",
"@	c #FFFF00",
"#	c #FFFFFF",
"$	c #C1C1C1",
"%	c #696969",
"                      ",
" .................... ",
" .++.@#@#@#@#@#@#.$$. ",
" .++.#%%%%%%%%%#@.$$. ",
" .++.@#@#@#@#@#@#.... ",
" .++.#%%%%%%%#@#@.++. ",
" .++.@#@#@#@#@#@#.++. ",
" .++.#%%%%%%%%%#@.++. ",
" .++.@#@#@#@#@#@#.++. ",
" .++.#%%%%%%%#@#@.++. ",
" .++.@#@#@#@#@#@#.++. ",
" .+++............+++. ",
" .++++++++++++++++++. ",
" .++++++++++++++++++. ",
" .+++.............++. ",
" .+++.........$$$.++. ",
" .+++.........$$$.++. ",
" .+++.........$$$.++. ",
" .+++.........$$$.++. ",
" .+++.........$$$.++. ",
"  ..................  ",
"                      "};
