/* XPM */
static const char * mapadd_xpm[] = {
"22 22 14 1",
" 	c None",
".	c #666666",
"+	c #00FF00",
"@	c #000000",
"#	c #00CC00",
"$	c #006600",
"%	c #807766",
"&	c #101010",
"*	c #FFFF00",
"=	c #FFFFFF",
"-	c #696866",
";	c #000600",
">	c #000200",
",	c #1A241A",
"                      ",
"            ...       ",
"           .+++@      ",
"           .+#$@      ",
"           .+#$@      ",
"       .....+#$@....  ",
"       .++++###++++@  ",
"       .+#########$@  ",
"       .$$$$###$$$$@  ",
"       .@@@@+#$@@@@@  ",
"           .+#$@      ",
"@@@@@@@@@@@%+#$@@@&@@@",
"@*=*=*=*=*=-$$$@=*=*=@",
"@=*=*=*=*=*=@@@@*=*=*@",
"@*=*=*=*=*=*=*=*=*=*=@",
"@=*;@@@=*=*=*=*=;@@@*@",
"@*=@>@@*=*=*=*=*@@@@=@",
"@=*=*,*=*=*=*=*=*@*=*@",
"@*=*=@@@@@@@@@@@@@=*=@",
"@=*=*=*=*=*=*=*=*=*=*@",
"@@&@@@@@@@@@@@@@@@@@@@",
"                      "};
