/* XPM */
static const char * mapclone_xpm[] = {
"22 22 9 1",
" 	c None",
".	c #000000",
"+	c #FFFF00",
"@	c #FFFFFF",
"#	c #000600",
"$	c #000200",
"%	c #1A241A",
"&	c #101010",
"*	c #848200",
"                      ",
"                      ",
"                      ",
"      ................",
"      .+@+@+@+@+@+@+@+",
"      .@+@+@+@+@+@+@+@",
"      .+@+@+@+@+@+@+@+",
"      .@+#...@+@+@+@+@",
"      .+@.$..+@+@+@+@+",
"      .@+@+%+@+@+@+@+@",
"      .+@+@...........",
".......@+@+@+@+@+@+@+@",
".+@+@+..&....&........",
".@+@+@@**************.",
".+@+@+@+@+@+@+@+@+@+@.",
".@+#...@+@+@+@+@#...+.",
".+@.$..+@+@+@+@+....@.",
".@+@+%+@+@+@+@+@+.+@+.",
".+@+@.............@+@.",
".@+@+@+@+@+@+@+@+@+@+.",
"..&...................",
"                      "};
