/* XPM */
static const char * mapremove_xpm[] = {
"22 22 14 1",
" 	c None",
".	c #FF0000",
"+	c #C00000",
"@	c #660000",
"#	c #CC2814",
"$	c #3D3D3D",
"%	c #000000",
"&	c #000700",
"*	c #FFFF00",
"=	c #FFFFFF",
"-	c #000600",
";	c #000200",
">	c #1A241A",
",	c #101010",
"                      ",
"                      ",
"         .      .     ",
"        .+.    .+.    ",
"       .+++.  .+++@   ",
"        @+++..++@     ",
"          @++++@      ",
"           .++.       ",
"          .+++.       ",
"          ++@++.      ",
"         .+#  ++$     ",
"%%%%%%%%%++%%%%++&%%%%",
"%*=*=*=*++=*=*=*+*=*=%",
"%=*=*=*=*=*=*=*=*=*=*%",
"%*=*=*=*=*=*=*=*=*=*=%",
"%=*-%%%=*=*=*=*=-%%%*%",
"%*=%;%%*=*=*=*=*%%%%=%",
"%=*=*>*=*=*=*=*=*%*=*%",
"%*=*=%%%%%%%%%%%%%=*=%",
"%=*=*=*=*=*=*=*=*=*=*%",
"%%,%%%%%%%%%%%%%%%%%%%",
"                      "};
